<svg xmlns="http://www.w3.org/2000/svg" viewBox="0 0 389.17 168.88"><defs><style>.cls-1{fill:#fff;}</style></defs><title>logo</title><g id="Graphic_Elements" data-name="Graphic Elements"><g id="Layer_11" data-name="Layer 11"><path class="cls-1" d="M199.67,94c-.6-7.39-5.35-28.41-27.08-28.41-6.49,0-11.13,1.22-14.45,3V26.39A3.39,3.39,0,0,0,154.75,23h-15.4A3.39,3.39,0,0,0,136,26.39v95.36a3.39,3.39,0,0,0,3.39,3.38h15.4a3.39,3.39,0,0,0,3.39-3.38V96.29c0-17.66,20.07-13.56,20.07,0v25.46a3.4,3.4,0,0,0,3.39,3.38h14.76a3.4,3.4,0,0,0,3.39-3.38V94.67A3.17,3.17,0,0,0,199.67,94Z"/><path class="cls-1" d="M264.31,66.63H249.44A3.39,3.39,0,0,0,246.05,70V94.48c0,19-17.53,17.11-17.52,0V70a3.39,3.39,0,0,0-3.38-3.38H210.28A3.39,3.39,0,0,0,206.89,70V95.3h0v3.12a3.37,3.37,0,0,0,.23,1.2c1,10.46,6.25,27.63,25.6,27.63,11.72,0,17-5.22,19.44-10.41a47.14,47.14,0,0,0,2.91,6.77v0a1.4,1.4,0,0,0,.13.18l0,0a3.37,3.37,0,0,0,2.63,1.28h6.43a3.39,3.39,0,0,0,3.38-3.38V70A3.39,3.39,0,0,0,264.31,66.63Z"/><path class="cls-1" d="M310.42,65.61a24.39,24.39,0,0,0-18.87,8.76A33.57,33.57,0,0,0,289,68.49a.81.81,0,0,0-.14-.12,3.39,3.39,0,0,0-2.56-1.19h-5.81a3.39,3.39,0,0,0-3.38,3.39V109h0v56.5a3.4,3.4,0,0,0,3.38,3.39H295.3a3.4,3.4,0,0,0,3.38-3.39V124.4a28.44,28.44,0,0,0,11.74,2.38c18.71,0,29.07-13.7,29.07-30.59S328.8,65.61,310.42,65.61ZM308,107.84a11.65,11.65,0,1,1,11.64-11.65A11.64,11.64,0,0,1,308,107.84Z"/><path class="cls-1" d="M389.09,120.29l-2.45-11.41a3.39,3.39,0,0,0-4-2.61l-3.52.76h0c-4.21.87-5.49,1.06-5.49-5.91V86h10.17a3.41,3.41,0,0,0,3.39-3.39V70.89a3.41,3.41,0,0,0-3.39-3.39H373.61V51.83a3.39,3.39,0,0,0-3.39-3.39H355.35A3.39,3.39,0,0,0,352,51.83V67.5h-6.18a3.41,3.41,0,0,0-3.39,3.39V82.57A3.41,3.41,0,0,0,345.79,86H352v16.15c0,5.08-1.58,27.79,21.06,24.94a3.54,3.54,0,0,0,1,0l12.49-2.68A3.4,3.4,0,0,0,389.09,120.29Z"/><path class="cls-1" d="M114,96.8a2.66,2.66,0,0,0-3.71-.2,28.41,28.41,0,0,1-19,7.34c-16,0-29.06-13.43-29.06-30s13-30,29.06-30a28.43,28.43,0,0,1,18.92,7.24,2.69,2.69,0,0,0,3.69-.06L125.61,39.5a2.7,2.7,0,0,0,0-3.88A52.77,52.77,0,0,0,38.32,60.11L24.91,52a2.53,2.53,0,0,0-3.28.62c-1,1.33-4.47,4.81-8,4.85-2.07,0-4-1.11-5.9-3.47C1,45.63,8.84,38.73,9.76,38a2.5,2.5,0,0,0,.49-3.35c-.05-.06-4.46-6.69-.57-13A2.5,2.5,0,0,0,5.41,19c-4.12,6.73-1.88,13.43-.34,16.6A20.38,20.38,0,0,0,1.5,40.77c-1.82,3.89-2.9,9.9,2.35,16.41,2.88,3.58,6.2,5.39,9.87,5.33,4.59-.07,8.38-3.12,10.37-5.12l13.1,7.88a53.43,53.43,0,0,0-.68,6.49,52.78,52.78,0,0,0,88.65,40.88,2.68,2.68,0,0,0,.12-3.82Z"/><path class="cls-1" d="M49.23,26.93a2.46,2.46,0,0,1-1-.22l-5.14-2.29a2.49,2.49,0,0,1-1.38-1.59A2.46,2.46,0,0,1,42,20.74c1-1.46,3.32-6,2.47-9.62A6.31,6.31,0,0,0,41.16,7C37.49,4.94,34.42,4.48,32,5.63,28,7.59,26.18,14,25.82,16.37a2.5,2.5,0,0,1-3.35,2c-3.79-1.44-9-.1-9-.08a2.5,2.5,0,0,1-1.29-4.83,24.79,24.79,0,0,1,9.34-.49c1-3.47,3.3-9.33,8.35-11.79C33.79-.79,38.43-.27,43.63,2.68A11.22,11.22,0,0,1,49.37,10c1,4.1-.51,8.34-1.76,11l2.64,1.18a2.5,2.5,0,0,1-1,4.79Z"/></g></g></svg>